<svg xmlns="http://www.w3.org/2000/svg" version="1.1" xmlns:xlink="http://www.w3.org/1999/xlink" xmlns:svgjs="http://svgjs.dev/svgjs" width="139.99146mm" height="126.69149mm"><svg width="139.99146mm" height="126.69149mm" viewBox="0 0 139.99146 126.69149" version="1.1" id="SvgjsSvg1029" xmlns="http://www.w3.org/2000/svg" xmlns:svg="http://www.w3.org/2000/svg">
  <defs id="SvgjsDefs1028">
    <rect x="171.3261" y="468.36551" width="41.162762" height="72.312965" id="SvgjsRect1027"></rect>
  </defs>
  <g id="SvgjsG1026" transform="translate(-0.00930176,0.00826823)">
    <rect style="display:none;fill:#ffccaa;stroke-width:0.264583" id="SvgjsRect1025" width="70" height="150" x="0" y="0"></rect>
    <text xml:space="preserve" style="font-style:normal;font-variant:normal;font-weight:bold;font-stretch:normal;font-size:66.5825px;font-family:Bahnschrift;-inkscape-font-specification:'Bahnschrift Bold';text-align:start;writing-mode:lr-tb;direction:ltr;text-anchor:start;white-space:pre;inline-size:152.053;display:none;fill:#000000;stroke-width:0.264583" x="55.926655" y="123.92171" id="SvgjsText1024" transform="matrix(0.9537042,0,0,0.9537042,-43.884112,-37.380849)" svgjs:data="{&quot;leading&quot;:&quot;1.3&quot;}"><tspan x="55.926655" y="123.92171" id="SvgjsTspan1023">PBC</tspan></text>
    <path style="display:none;fill:#343434;fill-opacity:1;stroke-width:0.264583" d="M 0.00930176,-0.00826823 69.887951,139.84051 140.00098,-0.00101355 Z" id="SvgjsPath1022"></path>
    <rect style="display:none;fill:#00ff00;stroke-width:0.280726" id="SvgjsRect1021" width="140" height="140" x="0" y="0"></rect>
    <path id="SvgjsPath1020" style="fill:#343434;fill-opacity:1;stroke-width:0.264583" d="M 0.00930176,-0.00826823 63.223531,126.50391 17.173629,-0.0072347 Z M 20.792013,-0.0072347 64.844104,121.01639 43.511556,-0.00620117 Z M 46.965092,-0.00568441 68.187569,120.40092 V -0.00465088 Z m 24.622786,0.00103353 V 120.39472 L 92.820174,-0.00361735 Z M 96.27216,-0.00310059 74.93186,121.00915 118.98033,-0.00206706 Z M 122.59872,-0.00206706 76.48422,126.68322 140.00076,-0.00103353 Z"></path>
    <text xml:space="preserve" style="font-style:normal;font-variant:normal;font-weight:bold;font-stretch:normal;font-size:66.5825px;font-family:Bahnschrift;-inkscape-font-specification:'Bahnschrift Bold';text-align:start;writing-mode:lr-tb;direction:ltr;text-anchor:start;white-space:pre;inline-size:152.053;display:inline;fill:#333333;fill-opacity:1;stroke-width:0.264583" x="55.926655" y="123.92171" id="SvgjsText1019" transform="matrix(0.9537042,0,0,0.9537042,-40.796538,-33.702456)" svgjs:data="{&quot;leading&quot;:&quot;1.3&quot;}"><tspan x="55.926655" y="123.92171" id="SvgjsTspan1018">PBC</tspan></text>
    <path id="SvgjsPath1017" style="font-weight:bold;font-size:66.5825px;font-family:Bahnschrift;-inkscape-font-specification:'Bahnschrift Bold';white-space:pre;inline-size:152.053;display:inline;fill:none;stroke:#000000;stroke-width:3.14563;stroke-dasharray:none;stroke-opacity:1" d="m 160.05857,76.163128 c -3.59788,0 -6.67559,0.693567 -9.23312,2.080703 -2.55753,1.387135 -4.50819,3.402816 -5.85197,6.047042 -1.34379,2.622553 -2.01568,5.797792 -2.01568,9.525718 v 12.971879 c 0,3.72793 0.67189,6.914 2.01568,9.55823 1.34378,2.62255 3.29444,4.6274 5.85197,6.01453 2.55753,1.36546 5.63524,2.04819 9.23312,2.04819 2.96934,0 5.61356,-0.63938 7.93268,-1.91814 2.34079,-1.27876 4.26978,-3.13189 5.78696,-5.55938 1.53885,-2.44917 2.61171,-5.39683 3.21858,-8.84299 h -9.23312 c -0.3251,1.5822 -0.84528,2.92599 -1.56052,4.03136 -0.71524,1.10538 -1.59304,1.95066 -2.63339,2.53586 -1.04035,0.56352 -2.21075,0.84529 -3.51119,0.84529 -1.6689,0 -3.08854,-0.33595 -4.25894,-1.00785 -1.17039,-0.69356 -2.06986,-1.69057 -2.69841,-2.99101 -0.60687,-1.30044 -0.91031,-2.8718 -0.91031,-4.71409 V 93.816591 c 0,-1.842289 0.30344,-3.413653 0.91031,-4.714093 0.62855,-1.322114 1.52802,-2.319117 2.69841,-2.99101 1.1704,-0.693568 2.59004,-1.040351 4.25894,-1.040351 1.27877,0 2.42749,0.292598 3.44617,0.877796 1.04035,0.585198 1.91815,1.430483 2.63339,2.535857 0.73692,1.105373 1.27876,2.438323 1.62554,3.99885 h 9.23312 c -0.5852,-3.446164 -1.64722,-6.382989 -3.18607,-8.810475 -1.51718,-2.449161 -3.44616,-4.313124 -5.78696,-5.591889 -2.34079,-1.278766 -4.99585,-1.918148 -7.96519,-1.918148 z m -98.930914,0.487665 v 47.270967 h 8.908009 v -18.33619 h 10.045893 c 2.947663,0 5.537704,-0.59604 7.770125,-1.78811 2.254095,-1.19207 3.99885,-2.8718 5.234268,-5.0392 1.235417,-2.189073 1.853126,-4.724929 1.853126,-7.60757 0,-2.88264 -0.617709,-5.418496 -1.853126,-7.607569 -1.235418,-2.189073 -2.980173,-3.879644 -5.234268,-5.071713 -2.232421,-1.213744 -4.822462,-1.820615 -7.770125,-1.820615 H 70.035665 65.191529 Z m 40.801284,0 v 47.270967 h 3.90132 5.00669 10.92369 c 3.05603,0 5.66774,-0.4985 7.83514,-1.49551 2.18908,-1.01867 3.84714,-2.4925 4.97418,-4.42149 1.14872,-1.92899 1.72308,-4.2481 1.72308,-6.95735 v -0.0975 c 0,-2.0807 -0.39013,-3.91216 -1.17039,-5.49436 -0.75859,-1.5822 -1.88564,-2.86096 -3.38114,-3.83629 -1.47384,-0.997 -3.2511,-1.636388 -5.3318,-1.918152 1.95065,-0.32511 3.61955,-0.942818 5.00669,-1.853126 1.38713,-0.910307 2.43832,-2.069865 3.15356,-3.478675 0.73692,-1.430483 1.10538,-3.066868 1.10538,-4.909158 0,-2.687574 -0.56352,-4.985017 -1.69057,-6.892328 -1.12705,-1.928985 -2.77427,-3.391979 -4.94167,-4.388982 -2.1674,-1.018678 -4.77912,-1.528016 -7.83515,-1.528016 h -10.371 -5.00669 z m -31.893275,8.582899 h 10.27347 c 1.0837,0 2.026518,0.24925 2.828456,0.747752 0.823612,0.476828 1.452156,1.170396 1.885636,2.080703 0.455154,0.888633 0.682731,1.918147 0.682731,3.088543 0,1.148722 -0.227577,2.167399 -0.682731,3.056032 -0.455154,0.888634 -1.094535,1.582202 -1.918147,2.080703 -0.801938,0.476828 -1.733919,0.715242 -2.795945,0.715242 h -10.27347 z m 40.801285,0 h 10.0784 c 1.84229,0 3.26193,0.422642 4.25894,1.267928 1.01867,0.845285 1.52802,2.026518 1.52802,3.543697 0,1.690571 -0.50935,3.001847 -1.52802,3.933829 -0.99701,0.931982 -2.41665,1.397972 -4.25894,1.397972 h -10.0784 z m 0,18.726328 h 10.0784 c 1.34379,0 2.49251,0.22757 3.44616,0.68273 0.97534,0.43348 1.71225,1.07286 2.21075,1.91815 0.4985,0.84528 0.74775,1.86396 0.74775,3.05603 v 0.0975 c 0,1.77727 -0.56352,3.16441 -1.69057,4.16141 -1.10537,0.97533 -2.67674,1.46299 -4.71409,1.46299 h -10.0784 z" transform="matrix(0.9537042,0,0,0.9537042,-43.884112,-37.380849)"></path>
  </g>
</svg><style>@media (prefers-color-scheme: light) { :root { filter: none; } }
@media (prefers-color-scheme: dark) { :root { filter: invert(100%); } }
</style></svg>